<svg xmlns="http://www.w3.org/2000/svg" xmlns:xlink="http://www.w3.org/1999/xlink" width="64" height="64" viewBox="0 0 64 64">
  <defs>
    <clipPath id="clip-filled">
      <rect width="64" height="64"/>
    </clipPath>
  </defs>
  <g id="filled" clip-path="url(#clip-filled)">
    <g id="color-filter-sharp-svgrepo-com" transform="translate(-32 -45.796)">
      <g id="circle-area-svgrepo-com" transform="translate(32 45.796)">
        <path id="Path_466" data-name="Path 466" d="M0,0H63.647V63.647H0Z" fill="none"/>
      </g>
    </g>
    <g id="color-filter-sharp-svgrepo-com-2" data-name="color-filter-sharp-svgrepo-com" transform="translate(-29.277 -69.467)">
      <g id="Path_467" data-name="Path 467" transform="translate(31 71.796)" fill="#e5879b">
        <path d="M 22.5 43 C 19.73163986206055 43 17.04714012145996 42.45825958251953 14.52108955383301 41.38983154296875 C 12.0802001953125 40.357421875 9.887639999389648 38.87902069091797 8.00430965423584 36.99568939208984 C 6.120979785919189 35.11235809326172 4.642580032348633 32.9197998046875 3.610169887542725 30.47891044616699 C 2.541739940643311 27.95285987854004 2 25.26836013793945 2 22.5 C 2 19.73163986206055 2.541739940643311 17.04714012145996 3.610169887542725 14.52108955383301 C 4.642580032348633 12.0802001953125 6.120979785919189 9.887639999389648 8.00430965423584 8.00430965423584 C 9.887639999389648 6.120979785919189 12.0802001953125 4.642580032348633 14.52108955383301 3.610169887542725 C 17.04714012145996 2.541739940643311 19.73163986206055 2 22.5 2 C 25.26836013793945 2 27.95285987854004 2.541739940643311 30.47891044616699 3.610169887542725 C 32.9197998046875 4.642580032348633 35.11235809326172 6.120979785919189 36.99568939208984 8.00430965423584 C 38.87902069091797 9.887639999389648 40.357421875 12.0802001953125 41.38983154296875 14.52108955383301 C 42.45825958251953 17.04714012145996 43 19.73163986206055 43 22.5 C 43 25.26836013793945 42.45825958251953 27.95285987854004 41.38983154296875 30.47891044616699 C 40.357421875 32.9197998046875 38.87902069091797 35.11235809326172 36.99568939208984 36.99568939208984 C 35.11235809326172 38.87902069091797 32.9197998046875 40.357421875 30.47891044616699 41.38983154296875 C 27.95285987854004 42.45825958251953 25.26836013793945 43 22.5 43 Z" stroke="none"/>
        <path d="M 22.5 4 C 17.55846977233887 4 12.9127082824707 5.924339294433594 9.418521881103516 9.418521881103516 C 5.924339294433594 12.9127082824707 4 17.55846977233887 4 22.5 C 4 27.44153022766113 5.924339294433594 32.08728790283203 9.418521881103516 35.58148193359375 C 12.9127082824707 39.07566070556641 17.55846977233887 41 22.5 41 C 27.44153022766113 41 32.08728790283203 39.07566070556641 35.58148193359375 35.58148193359375 C 39.07566070556641 32.08728790283203 41 27.44153022766113 41 22.5 C 41 17.55846977233887 39.07566070556641 12.9127082824707 35.58148193359375 9.418521881103516 C 32.08728790283203 5.924339294433594 27.44153022766113 4 22.5 4 M 22.5 0 C 34.92641067504883 0 45 10.07358932495117 45 22.5 C 45 34.92641067504883 34.92641067504883 45 22.5 45 C 10.07358932495117 45 0 34.92641067504883 0 22.5 C 0 10.07358932495117 10.07358932495117 0 22.5 0 Z" stroke="none" fill="#4b4b4b"/>
      </g>
    </g>
    <g id="color-filter-sharp-svgrepo-com-3" data-name="color-filter-sharp-svgrepo-com" transform="translate(-12 -51.796)">
      <g id="Ellipse_60" data-name="Ellipse 60" transform="translate(31 71.796)" fill="#71bddc" stroke="#4b4b4b" stroke-width="4">
        <circle cx="21" cy="21" r="21" stroke="none"/>
        <circle cx="21" cy="21" r="19" fill="none"/>
      </g>
    </g>
  </g>
</svg>